<svg width="35" height="35" viewBox="0 0 35 35" fill="none" xmlns="http://www.w3.org/2000/svg">
<mask id="mask0_8_5079" style="mask-type:luminance" maskUnits="userSpaceOnUse" x="0" y="0" width="35" height="35">
<rect width="35" height="35" fill="white"/>
</mask>
<g mask="url(#mask0_8_5079)">
<path d="M6.34738 16.8379C8.70035 15.5452 11.3269 14.4662 13.781 13.3817C18.003 11.6054 22.2418 9.8599 26.5234 8.23486C27.3564 7.95798 28.8532 7.68725 29 8.91857C28.9196 10.6616 28.589 12.3944 28.3623 14.1272C27.7867 17.9377 27.1214 21.7352 26.4727 25.5333C26.2492 26.7984 24.6604 27.4533 23.6437 26.6437C21.2005 24.9976 18.7385 23.3675 16.3265 21.6832C15.5364 20.8824 16.2691 19.7324 16.9747 19.1605C18.987 17.1825 21.1211 15.5019 23.0282 13.4216C23.5427 12.1825 22.0227 13.2268 21.5213 13.5468C18.7664 15.4403 16.079 17.4495 13.1745 19.1137C11.6909 19.9283 9.96174 19.2322 8.47881 18.7777C7.1492 18.2285 5.20079 17.6753 6.34725 16.8381L6.34738 16.8379Z" fill="white"/>
</g>
</svg>
