<svg width="35" height="35" viewBox="0 0 35 35" fill="none" xmlns="http://www.w3.org/2000/svg">
<mask id="mask0_8_5087" style="mask-type:luminance" maskUnits="userSpaceOnUse" x="0" y="0" width="35" height="35">
<rect width="35" height="35" fill="white"/>
</mask>
<g mask="url(#mask0_8_5087)">
<path d="M26.1636 11.4368C24.5701 10.7862 22.8614 10.3069 21.0749 10.0324C21.0424 10.0271 21.0099 10.0403 20.9931 10.0668C20.7733 10.4146 20.5299 10.8683 20.3595 11.2249C18.4379 10.969 16.5262 10.969 14.6441 11.2249C14.4736 10.8604 14.2213 10.4146 14.0006 10.0668C13.9838 10.0412 13.9513 10.028 13.9188 10.0324C12.1332 10.306 10.4245 10.7854 8.83014 11.4368C8.81634 11.4421 8.80451 11.4509 8.79666 11.4624C5.55562 15.7709 4.66776 19.9735 5.10331 24.124C5.10528 24.1443 5.11809 24.1637 5.13583 24.1761C7.27418 25.5734 9.34553 26.4217 11.3784 26.984C11.411 26.9928 11.4454 26.9822 11.4661 26.9584C11.947 26.374 12.3757 25.7579 12.7432 25.11C12.7649 25.072 12.7442 25.027 12.6999 25.012C12.0199 24.7825 11.3725 24.5027 10.7497 24.1849C10.7005 24.1593 10.6965 24.0966 10.7418 24.0666C10.8729 23.9792 11.004 23.8883 11.1291 23.7965C11.1518 23.7797 11.1833 23.7762 11.2099 23.7868C15.3013 25.4489 19.7308 25.4489 23.7739 23.7868C23.8005 23.7753 23.8321 23.7789 23.8557 23.7956C23.9809 23.8874 24.1119 23.9792 24.244 24.0666C24.2893 24.0966 24.2863 24.1593 24.2371 24.1849C23.6143 24.5089 22.9669 24.7825 22.2859 25.0111C22.2416 25.0261 22.2219 25.072 22.2436 25.11C22.619 25.757 23.0477 26.3731 23.5197 26.9575C23.5394 26.9822 23.5749 26.9928 23.6074 26.984C25.6501 26.4217 27.7215 25.5734 29.8598 24.1761C29.8786 24.1637 29.8904 24.1452 29.8924 24.1249C30.4136 19.3264 29.0193 15.1583 26.1961 11.4633C26.1892 11.4509 26.1774 11.4421 26.1636 11.4368ZM13.3542 21.5968C12.1224 21.5968 11.1074 20.5905 11.1074 19.3547C11.1074 18.1189 12.1027 17.1126 13.3542 17.1126C14.6155 17.1126 15.6206 18.1277 15.6009 19.3547C15.6009 20.5905 14.6056 21.5968 13.3542 21.5968ZM21.6612 21.5968C20.4294 21.5968 19.4145 20.5905 19.4145 19.3547C19.4145 18.1189 20.4097 17.1126 21.6612 17.1126C22.9225 17.1126 23.9276 18.1277 23.908 19.3547C23.908 20.5905 22.9225 21.5968 21.6612 21.5968Z" fill="white"/>
</g>
</svg>
