<svg width="35" height="35" viewBox="0 0 35 35" fill="none" xmlns="http://www.w3.org/2000/svg">
<mask id="mask0_8_5083" style="mask-type:luminance" maskUnits="userSpaceOnUse" x="0" y="0" width="35" height="35">
<rect width="35" height="35" fill="white"/>
</mask>
<g mask="url(#mask0_8_5083)">
<path fill-rule="evenodd" clip-rule="evenodd" d="M17.1678 13.0543L17.2177 13.8761L16.3867 13.7755C13.3621 13.3897 10.7197 12.0816 8.4762 9.88448L7.37936 8.79434L7.09684 9.59937C6.49856 11.3939 6.88079 13.2891 8.1272 14.5637C8.79195 15.2681 8.64238 15.3688 7.49569 14.9495C7.09684 14.8153 6.74784 14.7147 6.71461 14.765C6.59828 14.8824 6.99713 16.4086 7.31288 17.0124C7.74497 17.8509 8.62577 18.6728 9.58965 19.1591L10.404 19.5449L9.44009 19.5616C8.50943 19.5616 8.4762 19.5784 8.57591 19.9306C8.90828 21.0208 10.2212 22.178 11.6836 22.6811L12.714 23.0333L11.8166 23.57C10.4871 24.3415 8.9249 24.7776 7.36274 24.8111C6.61489 24.8279 6 24.895 6 24.9453C6 25.113 8.02749 26.0522 9.20742 26.4212C12.7472 27.5113 16.9518 27.0417 20.1093 25.1801C22.3529 23.8551 24.5964 21.222 25.6434 18.6728C26.2084 17.3143 26.7735 14.8321 26.7735 13.6413C26.7735 12.8698 26.8233 12.7692 27.754 11.8467C28.3024 11.3101 28.8176 10.7231 28.9173 10.5553C29.0835 10.2367 29.0669 10.2367 28.2193 10.5218C26.8067 11.0249 26.6073 10.9579 27.3053 10.2031C27.8204 9.66645 28.4353 8.69371 28.4353 8.40859C28.4353 8.35828 28.1861 8.44213 27.9035 8.59308C27.6044 8.76079 26.9396 9.01237 26.4411 9.16331L25.5437 9.44842L24.7294 8.89497C24.2806 8.59308 23.6491 8.25765 23.3168 8.15702C22.4692 7.92222 21.1729 7.95576 20.4085 8.22411C18.3311 8.97882 17.0182 10.9243 17.1678 13.0543Z" fill="white"/>
</g>
</svg>
