<svg width="14" height="15" viewBox="0 0 14 15" fill="none" xmlns="http://www.w3.org/2000/svg">
<path d="M6.99617 4.9821e-06C8.51367 -0.00196241 9.97234 0.57882 11.0631 1.6193C12.1539 2.65979 12.7911 4.07822 12.8397 5.57409L12.8429 5.7663V8.91624L13.9186 11.3427C13.9833 11.4889 14.0101 11.6487 13.9966 11.8077C13.983 11.9667 13.9295 12.1198 13.841 12.2533C13.7524 12.3868 13.6315 12.4965 13.4893 12.5724C13.347 12.6483 13.1878 12.6881 13.0261 12.6882L9.33484 12.6905C9.33564 13.2909 9.09897 13.868 8.67515 14.2991C8.25133 14.7302 7.67376 14.9813 7.06519 14.999C6.45662 15.0167 5.86504 14.7997 5.41617 14.394C4.96729 13.9883 4.69652 13.426 4.66139 12.8266L4.65749 12.6882H0.974082C0.812565 12.688 0.653625 12.6482 0.511534 12.5725C0.369443 12.4967 0.24865 12.3874 0.160005 12.2542C0.0713587 12.1211 0.0176352 11.9683 0.00365846 11.8096C-0.0103183 11.6509 0.0158894 11.4912 0.0799281 11.345L1.14948 8.91701V5.7663C1.14948 2.57177 3.76256 4.9821e-06 6.99617 4.9821e-06ZM8.16551 12.6889L5.82683 12.6905C5.82678 12.9867 5.94232 13.2716 6.14949 13.4861C6.35666 13.7006 6.63957 13.8282 6.93959 13.8426C7.2396 13.8569 7.5337 13.7568 7.76093 13.5631C7.98815 13.3694 8.13107 13.0968 8.16005 12.802L8.16473 12.6889H8.16551ZM6.99617 1.15326C4.40804 1.15326 2.31882 3.20914 2.31882 5.7663V9.15689L1.27109 11.5357H12.7283L11.6735 9.15765V5.7763L11.6704 5.60331C11.6299 4.40808 11.1194 3.2753 10.247 2.44474C9.3746 1.61417 8.20873 1.151 6.99617 1.15326Z" fill="white"/>
</svg>
