<svg width="60" height="24" viewBox="0 0 60 24" fill="none" xmlns="http://www.w3.org/2000/svg">
<path fill-rule="evenodd" clip-rule="evenodd" d="M59 0H60V23H59V0Z" fill="#363636"/>
<path fill-rule="evenodd" clip-rule="evenodd" d="M16 4C16 3.44772 16.4477 3 17 3H23C23.5523 3 24 3.44772 24 4V10C24 10.5523 23.5523 11 23 11H17C16.4477 11 16 10.5523 16 10V4Z" fill="white"/>
<path fill-rule="evenodd" clip-rule="evenodd" d="M26 4C26 3.44772 26.4477 3 27 3H33C33.5523 3 34 3.44772 34 4V10C34 10.5523 33.5523 11 33 11H27C26.4477 11 26 10.5523 26 10V4Z" fill="white"/>
<path fill-rule="evenodd" clip-rule="evenodd" d="M36 4C36 3.44772 36.4477 3 37 3H43C43.5523 3 44 3.44772 44 4V10C44 10.5523 43.5523 11 43 11H37C36.4477 11 36 10.5523 36 10V4Z" fill="white"/>
<path fill-rule="evenodd" clip-rule="evenodd" d="M26 14C26 13.4477 26.4477 13 27 13H33C33.5523 13 34 13.4477 34 14V20C34 20.5523 33.5523 21 33 21H27C26.4477 21 26 20.5523 26 20V14Z" fill="white"/>
<path fill-rule="evenodd" clip-rule="evenodd" d="M36 14C36 13.4477 36.4477 13 37 13H43C43.5523 13 44 13.4477 44 14V20C44 20.5523 43.5523 21 43 21H37C36.4477 21 36 20.5523 36 20V14Z" fill="white"/>
<path fill-rule="evenodd" clip-rule="evenodd" d="M16 14C16 13.4477 16.4477 13 17 13H23C23.5523 13 24 13.4477 24 14V20C24 20.5523 23.5523 21 23 21H17C16.4477 21 16 20.5523 16 20V14Z" fill="white"/>
<path fill-rule="evenodd" clip-rule="evenodd" d="M0 1H1V24H0V1Z" fill="#363636"/>
</svg>
