<svg width="16" height="15" viewBox="0 0 16 15" fill="none" xmlns="http://www.w3.org/2000/svg">
<path fill-rule="evenodd" clip-rule="evenodd" d="M2.49935 2.5C2.49935 3.0628 2.68532 3.58217 2.99917 4H1.83268C1.18835 4 0.666016 4.52233 0.666016 5.16667V6.83333C0.666016 7.29873 0.938524 7.70048 1.33268 7.88773V13.5C1.33268 14.1443 1.85502 14.6667 2.49935 14.6667H13.4993C14.1437 14.6667 14.666 14.1443 14.666 13.5V7.88773C15.0602 7.70048 15.3327 7.29873 15.3327 6.83333V5.16667C15.3327 4.52233 14.8103 4 14.166 4H12.9995C13.3134 3.58217 13.4993 3.0628 13.4993 2.5C13.4993 1.11929 12.3801 0 10.9993 0C10.029 0 8.70879 0.600727 7.99935 2.0734C7.28991 0.600727 5.96966 0 4.99935 0C3.61864 0 2.49935 1.11929 2.49935 2.5ZM7.47942 4C7.28808 1.6714 5.7656 1 4.99935 1C4.17092 1 3.49935 1.67157 3.49935 2.5C3.49935 3.32843 4.17092 4 4.99935 4H7.47942ZM13.666 8V13.5C13.666 13.592 13.5914 13.6667 13.4993 13.6667H8.49935V8H13.666ZM7.49935 13.6667V8H2.33268V13.5C2.33268 13.592 2.4073 13.6667 2.49935 13.6667H7.49935ZM14.166 7C14.2581 7 14.3327 6.92538 14.3327 6.83333V5.16667C14.3327 5.07462 14.2581 5 14.166 5H8.49935V7H14.166ZM1.83268 7H7.49935V5H1.83268C1.74063 5 1.66602 5.07462 1.66602 5.16667V6.83333C1.66602 6.92538 1.74063 7 1.83268 7ZM12.4993 2.5C12.4993 3.32843 11.8278 4 10.9993 4H8.51928C8.71062 1.6714 10.2331 1 10.9993 1C11.8278 1 12.4993 1.67157 12.4993 2.5Z" fill="white"/>
</svg>
